<?xml version="1.0" standalone="no"?>
<!DOCTYPE svg PUBLIC "-//W3C//DTD SVG 20010904//EN"
 "http://www.w3.org/TR/2001/REC-SVG-20010904/DTD/svg10.dtd">
<svg version="1.0" xmlns="http://www.w3.org/2000/svg"
 width="270.000000pt" height="101.000000pt" viewBox="0 0 270.000000 101.000000"
 preserveAspectRatio="xMidYMid meet">
<metadata>
Created by potrace 1.16, written by Peter Selinger 2001-2019
</metadata>
<g transform="translate(0.000000,101.000000) scale(0.100000,-0.100000)"
fill="#000000" stroke="none">
<path d="M341 855 c-21 -89 -26 -99 -90 -177 -37 -46 -82 -104 -99 -130 -42
-61 -102 -187 -102 -212 0 -28 49 -76 77 -76 54 0 151 145 229 342 25 62 50
124 57 137 14 29 140 118 180 127 25 6 27 4 27 -28 0 -66 -71 -147 -181 -208
l-48 -26 22 -32 c12 -17 26 -32 31 -32 19 0 106 63 141 102 39 42 85 130 85
161 0 10 -14 36 -32 58 -26 32 -37 39 -67 39 -20 0 -56 -9 -80 -20 -51 -24
-51 -24 -51 -6 0 14 -58 76 -71 76 -3 0 -16 -43 -28 -95z"/>
<path d="M1410 924 c-128 -40 -268 -220 -317 -407 -13 -51 -23 -69 -48 -86
-45 -30 -56 -28 -43 9 8 24 7 35 -6 55 -9 14 -21 25 -26 25 -15 0 -50 -61 -50
-86 0 -27 -48 -80 -61 -67 -19 19 29 116 76 155 18 15 19 18 4 33 -32 32 -116
-25 -149 -101 -10 -23 -32 -51 -50 -64 -50 -36 -51 -28 -3 106 2 6 -19 26 -46
44 -28 17 -51 38 -51 45 0 29 -29 23 -49 -9 -26 -41 -26 -51 -1 -69 19 -14 19
-14 -5 -37 -14 -13 -25 -27 -25 -32 0 -16 27 -7 50 17 32 34 43 19 24 -34 -8
-24 -14 -53 -12 -64 7 -47 63 -47 119 0 24 20 34 24 37 14 19 -57 88 -66 150
-21 23 17 50 30 60 30 9 0 34 9 54 20 l36 19 6 -25 c4 -13 23 -42 42 -64 34
-37 40 -40 91 -40 67 0 93 14 162 84 55 55 55 55 35 77 -42 47 -49 45 -127
-37 -58 -60 -79 -75 -98 -72 -104 14 115 467 263 544 23 12 29 12 43 -3 28
-27 -9 -116 -73 -177 l-30 -28 35 -31 36 -31 33 38 c96 111 100 212 11 266
-37 23 -38 23 -97 4z"/>
<path d="M1722 882 c-67 -63 -159 -232 -212 -391 -37 -111 -38 -143 -5 -165
13 -9 26 -16 28 -16 2 0 18 28 35 63 29 59 100 153 109 144 2 -2 -5 -29 -16
-58 -33 -92 -34 -106 -9 -123 32 -22 49 -20 99 14 41 27 44 28 51 11 10 -28
48 -51 83 -51 33 0 110 32 137 57 26 23 32 10 13 -26 -12 -24 -22 -31 -45 -31
-23 0 -30 -4 -30 -20 0 -15 7 -20 25 -20 14 0 25 -1 25 -3 0 -2 -15 -49 -34
-105 -19 -56 -32 -102 -30 -102 3 0 24 5 48 11 l43 11 33 102 33 103 61 26
c79 35 182 115 167 130 -8 8 -18 4 -38 -15 -36 -33 -99 -72 -140 -86 -18 -6
-33 -9 -33 -8 0 2 11 34 25 71 22 59 38 80 128 169 109 108 165 191 174 254 4
34 2 41 -22 56 -26 17 -29 17 -67 0 -76 -34 -159 -152 -239 -338 -43 -97 -53
-112 -99 -147 -57 -43 -117 -60 -131 -38 -15 23 -11 28 49 58 102 52 125 99
66 137 -52 35 -137 -10 -190 -99 -27 -46 -87 -97 -99 -85 -3 3 6 37 20 76 14
39 25 76 25 82 0 14 -52 38 -70 32 -8 -3 -32 -18 -52 -34 -58 -45 -45 -16 25
61 73 79 132 165 155 223 l16 41 -32 28 c-18 16 -36 29 -41 29 -5 0 -22 -13
-39 -28z"/>
</g>
</svg>
